<svg xmlns="http://www.w3.org/2000/svg" version="1.1" xmlns:xlink="http://www.w3.org/1999/xlink" xmlns:svgjs="http://svgjs.dev/svgjs" width="1000" height="999" viewBox="0 0 1000 999"><g transform="matrix(1,0,0,1,-0.215743440233382,-0.21552769679306039)"><svg viewBox="0 0 343 343" data-background-color="#ffffff" preserveAspectRatio="xMidYMid meet" height="999" width="1000" xmlns="http://www.w3.org/2000/svg" xmlns:xlink="http://www.w3.org/1999/xlink"><g id="tight-bounds" transform="matrix(1,0,0,1,0.0740000000000407,0.07400000000001228)"><svg viewBox="0 0 342.85155851775386 342.85155851775386" height="342.85155851775386" width="342.85155851775386"><g><svg></svg></g><g><svg viewBox="0 0 342.85155851775386 342.85155851775386" height="342.85155851775386" width="342.85155851775386"><g><path d="M0 171.426c0-94.676 76.75-171.426 171.426-171.426 94.676 0 171.426 76.75 171.426 171.426 0 94.676-76.75 171.426-171.426 171.426-94.676 0-171.426-76.75-171.426-171.426zM171.426 338.149c92.079 0 166.723-74.645 166.723-166.723 0-92.079-74.645-166.723-166.723-166.724-92.079 0-166.723 74.645-166.724 166.724 0 92.079 74.645 166.723 166.724 166.723z" data-fill-palette-color="tertiary" fill="#ff0000" stroke="transparent"></path><ellipse rx="164.56874808852186" ry="164.56874808852186" cx="171.42577925887693" cy="171.42577925887693" fill="#ff0000" stroke="transparent" stroke-width="0" fill-opacity="1" data-fill-palette-color="tertiary"></ellipse></g><g transform="matrix(1,0,0,1,64.84655864529837,145.35437089303832)"><svg viewBox="0 0 213.1584412271571 52.14281673167722" height="52.14281673167722" width="213.1584412271571"><g><svg viewBox="0 0 213.1584412271571 52.14281673167722" height="52.14281673167722" width="213.1584412271571"><g><svg viewBox="0 0 213.1584412271571 52.14281673167722" height="52.14281673167722" width="213.1584412271571"><g id="textblocktransform"><svg viewBox="0 0 213.1584412271571 52.14281673167722" height="52.14281673167722" width="213.1584412271571" id="textblock"><g><svg viewBox="0 0 213.1584412271571 52.14281673167722" height="52.14281673167722" width="213.1584412271571"><g transform="matrix(1,0,0,1,0,0)"><svg width="213.1584412271571" viewBox="1.600000023841858 -44.400001525878906 183.5399932861328 44.900001525878906" height="52.14281673167722" data-palette-color="#ffffff"><path d="M1.9 0Q1.6 0 1.6-0.45L1.6-0.45Q1.6-0.95 1.9-1.55 2.2-2.15 2.65-2.55L2.65-2.55Q3.9-3.55 4.33-4.03 4.75-4.5 5-5.15 5.25-5.8 5.6-7.45L5.6-7.45 10.75-31.5 10.4-31.5Q10.1-31.5 9.1-31.6L9.1-31.6Q7.3-31.75 7.15-31.75L7.15-31.75Q4.35-31.75 2.9-29.9L2.9-29.9Q2.8-29.75 2.55-29.38 2.3-29 2.1-29L2.1-29Q1.85-29 1.85-29.45L1.85-29.45Q1.85-29.95 2-30.3L2-30.3Q2.5-32.4 4.15-33.55 5.8-34.7 8.2-34.7L8.2-34.7 9.85-34.65Q11.25-34.55 12.1-34.55L12.1-34.55Q12.9-34.55 13.9-34.65L13.9-34.65 15.2-34.7Q15-34.05 15-32.8L15-32.8Q15-31.15 15.48-28.63 15.95-26.1 16.95-21.7L16.95-21.7 18.5-14.45Q18.6-14 19.15-10.8L19.15-10.8Q21.25-14.95 24.73-21.83 28.2-28.7 30.4-33L30.4-33Q32.3-36.6 33.93-38.68 35.55-40.75 37.3-41.95L37.3-41.95Q38.75-42.9 40.25-43.33 41.75-43.75 43.95-43.9L43.95-43.9Q45.65-44 46.15-44.2L46.15-44.2Q46.25-44.25 46.38-44.33 46.5-44.4 46.6-44.4L46.6-44.4Q46.85-44.4 46.85-44L46.85-44Q46.85-42.3 43.75-41.8L43.75-41.8Q43.55-41.75 42.5-41.6 41.45-41.45 40.43-41.08 39.4-40.7 38.65-40.1L38.65-40.1Q37-38.8 35.8-35.83 34.6-32.85 33.85-27.4L33.85-27.4Q33.5-25.2 33-19.5L33-19.5Q32.4-12 31.35-5.5L31.35-5.5Q31.2-4.3 30.4-3.4L30.4-3.4 30.4-3.35Q31.65-2.9 32.5-2.9L32.5-2.9Q33.2-2.9 33.95-3.18 34.7-3.45 34.85-3.45L34.85-3.45Q35.1-3.45 35.1-3.15L35.1-3.15Q35.1-2.75 34.45-2.05L34.45-2.05Q32.7 0 31.45 0L31.45 0Q31.05 0 29.55-0.4L29.55-0.4Q27.75-0.85 27.2-0.85L27.2-0.85Q26.3-0.85 25.33-0.43 24.35 0 24.25 0L24.25 0Q23.95 0 23.95-0.45L23.95-0.45Q23.95-0.9 24.25-1.48 24.55-2.05 25.15-2.55L25.15-2.55Q26.6-3.6 27.03-4.15 27.45-4.7 27.6-5.65L27.6-5.65 27.85-7.9Q28.4-12.9 28.93-17.6 29.45-22.3 29.9-26.4L29.9-26.4 29.8-26.4Q22.1-12.75 19.9-6.8L19.9-6.8Q19.15-5.2 18.15-3.65 17.15-2.1 16.7-2.1L16.7-2.1Q16.3-2.1 16.3-2.6L16.3-2.6Q16.15-5.65 15.83-7.88 15.5-10.1 14.5-14.95L14.5-14.95Q13.7-18.95 13.7-18.95L13.7-18.95Q12.75-23.15 12.35-25.65L12.35-25.65 12.3-25.65 8.1-5.5Q7.95-4.25 7.2-3.4L7.2-3.4 7.2-3.35Q8.55-2.9 9.2-2.9L9.2-2.9Q9.8-2.9 10.35-3.18 10.9-3.45 11.05-3.45L11.05-3.45Q11.3-3.45 11.3-3.15L11.3-3.15Q11.3-2.7 10.65-2.05L10.65-2.05Q8.75 0 7.65 0L7.65 0Q7.2 0 6.2-0.4L6.2-0.4Q6.05-0.45 5.48-0.65 4.9-0.85 4.35-0.85L4.35-0.85Q3.55-0.85 2.8-0.43 2.05 0 1.9 0L1.9 0ZM42.4 0.5Q40.3 0.5 39.22-1.13 38.15-2.75 38.15-5.65L38.15-5.65Q38.15-9.7 40.1-13.95 42.05-18.2 44.92-21 47.8-23.8 50.4-23.8L50.4-23.8Q52.35-23.8 53.4-22.08 54.45-20.35 54.45-17.55L54.45-17.55Q54.45-13.8 52.62-9.55 50.8-5.3 48-2.4 45.2 0.5 42.4 0.5L42.4 0.5ZM44.85-2.8Q46.5-2.8 47.85-4.48 49.2-6.15 50-8.93 50.8-11.7 50.8-14.8L50.8-14.8Q50.8-20.5 47.85-20.5L47.85-20.5Q46-20.5 44.62-18.5 43.25-16.5 42.52-13.63 41.8-10.75 41.8-8.25L41.8-8.25Q41.8-5.85 42.52-4.33 43.25-2.8 44.85-2.8L44.85-2.8ZM57.45 0.5Q57.1 0.5 57.1 0.25L57.1 0.25Q57.15-0.05 57.42-1.03 57.7-2 57.9-3L57.9-3Q58.2-4.35 59.95-14.85L59.95-14.85Q59.85-14.3 61.2-22.45L61.2-22.45Q62.15-28.15 63.77-32.65 65.4-37.15 68.3-40L68.3-40Q69.95-41.55 71.47-42.18 73-42.8 74.75-43.05L74.75-43.05Q75.35-43.1 76-43.35 76.65-43.6 76.75-43.6L76.75-43.6Q77.1-43.6 77.1-43.2L77.1-43.2Q77.1-42.65 76.2-41.75L76.2-41.75Q75.75-41.3 75.35-41.15 74.95-41 74.52-40.95 74.1-40.9 73.85-40.85L73.85-40.85Q72.45-40.65 71.47-40.08 70.5-39.5 69.45-38.25L69.45-38.25Q67.45-35.75 66.52-32.48 65.6-29.2 64.8-24.25L64.8-24.25Q64.6-22.65 64.45-21.9L64.45-21.9 63.35-14.9 63.4-14.9Q65.75-18.95 68.5-21.38 71.25-23.8 73.25-23.8L73.25-23.8Q75.35-23.8 75.35-20.75L75.35-20.75Q75.35-19.35 74.95-17.15L74.95-17.15Q74-12.4 74-12.4L74-12.4Q72.55-5.05 72.55-3.95L72.55-3.95Q72.55-3.05 73.25-3.05L73.25-3.05Q74.1-3.05 74.8-4.17 75.5-5.3 76.3-7.15L76.3-7.15Q76.35-7.2 76.47-7.45 76.6-7.7 76.8-7.7L76.8-7.7Q77.15-7.7 77.15-7.1L77.15-7.1 77.05-6.3Q76.7-4.5 75.62-2.93 74.55-1.35 73.22-0.43 71.9 0.5 70.8 0.5L70.8 0.5Q69 0.5 69-2.35L69-2.35Q69-3.75 69.32-5.65 69.65-7.55 70.25-10.4L70.25-10.4Q70.85-13.25 71.17-15.05 71.5-16.85 71.55-18.3L71.55-18.3Q71.55-19.25 71.4-19.6 71.25-19.95 70.55-19.95L70.55-19.95Q69-19.95 67.22-17.93 65.45-15.9 64.05-12.95 62.65-10 62.15-7.45L62.15-7.45 61.35-3.1Q61.15-1.8 59.85-0.65 58.55 0.5 57.45 0.5L57.45 0.5ZM83.09 0.5Q80.54 0.5 80.54-4.35L80.54-4.35Q80.54-9 82.57-13.53 84.59-18.05 88.04-20.93 91.49-23.8 95.49-23.8L95.49-23.8Q97.54-23.8 99.04-23.15L99.04-23.15Q98.39-20.6 98.14-19.4L98.14-19.4 97.09-14Q95.69-7.6 95.39-5.15L95.39-5.15Q95.34-4.8 95.34-4.3L95.34-4.3Q95.34-3.2 95.99-3.2L95.99-3.2Q96.79-3.2 97.49-4.23 98.19-5.25 99.09-7.15L99.09-7.15Q99.14-7.2 99.27-7.45 99.39-7.7 99.59-7.7L99.59-7.7Q99.89-7.7 99.89-7.1L99.89-7.1 99.79-6.3Q99.44-4.65 98.37-3.05 97.29-1.45 95.97-0.48 94.64 0.5 93.59 0.5L93.59 0.5Q91.84 0.5 91.84-2.35L91.84-2.35Q91.84-3.45 92.09-4.6L92.09-4.6 92.94-8.95 92.89-8.95Q90.49-4.75 87.77-2.13 85.04 0.5 83.09 0.5L83.09 0.5ZM85.44-3.6Q86.84-3.6 88.67-5.78 90.49-7.95 92.07-11.1 93.64-14.25 94.24-16.75L94.24-16.75 95.04-19.95Q93.54-20.95 91.89-20.95L91.89-20.95Q89.74-20.95 87.97-18.48 86.19-16 85.19-12.48 84.19-8.95 84.19-6.1L84.19-6.1Q84.19-4.85 84.47-4.23 84.74-3.6 85.44-3.6L85.44-3.6ZM104.49 0.5Q104.04 0.5 104.04 0.2L104.04 0.2Q104.04 0.05 104.27-0.53 104.49-1.1 104.89-3L104.89-3Q105.44-5.35 105.92-8.05 106.39-10.75 107.29-16.85L107.29-16.85Q107.59-18.75 107.59-19.5L107.59-19.5Q107.59-20.15 107.29-20.15L107.29-20.15Q106.79-20.15 106.19-19.35 105.59-18.55 104.74-17.15L104.74-17.15Q104.49-16.7 104.29-16.38 104.09-16.05 103.97-15.9 103.84-15.75 103.69-15.75L103.69-15.75Q103.29-15.75 103.29-16.3L103.29-16.3Q103.29-17.3 104.39-19.13 105.49-20.95 106.99-22.38 108.49-23.8 109.69-23.8L109.69-23.8Q110.49-23.8 110.84-23.08 111.19-22.35 111.19-21.25L111.19-21.25Q111.19-20.2 110.69-16.8L110.69-16.8 110.44-15.05 110.49-15.05Q112.94-19.4 115.27-21.6 117.59-23.8 119.69-23.8L119.69-23.8Q120.69-23.8 121.14-23.18 121.59-22.55 121.59-21.1L121.59-21.1Q121.59-19.7 121.14-17.15L121.14-17.15 120.89-15.75 120.99-15.75Q123.24-19.7 125.52-21.75 127.79-23.8 129.59-23.8L129.59-23.8Q131.69-23.8 131.69-20.8L131.69-20.8Q131.69-19.75 131.24-17.15L131.24-17.15 130.09-11.15Q128.84-4.8 128.84-3.95L128.84-3.95Q128.84-3.05 129.59-3.05L129.59-3.05Q130.44-3.05 131.14-4.17 131.84-5.3 132.64-7.15L132.64-7.15Q132.84-7.7 133.14-7.7L133.14-7.7Q133.44-7.7 133.44-7.1L133.44-7.1Q133.44-6.65 133.39-6.3L133.39-6.3Q133.04-4.5 131.97-2.93 130.89-1.35 129.54-0.43 128.19 0.5 127.09 0.5L127.09 0.5Q125.29 0.5 125.29-2.2L125.29-2.2Q125.29-4.25 126.54-10.2L126.54-10.2Q126.69-10.95 127.22-13.7 127.74-16.45 127.84-18.3L127.84-18.3Q127.84-19.15 127.69-19.55 127.54-19.95 126.94-19.95L126.94-19.95Q125.79-19.95 124.37-18.3 122.94-16.65 121.69-14.15 120.44-11.65 119.79-9.25L119.79-9.25 118.24-1.3Q118.19-0.7 117.12-0.1 116.04 0.5 115.39 0.5L115.39 0.5Q114.69 0.5 114.69-0.1L114.69-0.1Q115.14-2.05 116.34-8.63 117.54-15.2 117.74-18.3L117.74-18.3 117.74-18.8Q117.74-19.35 117.59-19.65 117.44-19.95 116.94-19.95L116.94-19.95Q115.59-19.95 113.92-17.88 112.24-15.8 110.92-12.83 109.59-9.85 109.19-7.45L109.19-7.45 108.39-3.1Q108.09-1.8 106.79-0.65 105.49 0.5 104.49 0.5L104.49 0.5ZM141.79 0.5Q139.54 0.5 138.21-1.23 136.89-2.95 136.89-6L136.89-6Q136.89-9.7 138.66-13.93 140.44-18.15 143.24-20.98 146.04-23.8 148.89-23.8L148.89-23.8Q151.49-23.8 151.49-20.65L151.49-20.65Q151.49-18.1 149.99-15.65 148.49-13.2 145.96-11.33 143.44-9.45 140.44-8.45L140.44-8.45Q140.44-5.75 141.31-4.55 142.19-3.35 143.89-3.35L143.89-3.35Q145.69-3.35 147.19-4.5 148.69-5.65 149.74-7.65L149.74-7.65Q149.89-7.95 150.04-8.15 150.19-8.35 150.44-8.35L150.44-8.35Q150.84-8.35 150.84-7.75L150.84-7.75Q150.84-6.4 149.49-4.4 148.14-2.4 146.04-0.95 143.94 0.5 141.79 0.5L141.79 0.5ZM142.04-11.1Q143.34-11.1 144.81-12.03 146.29-12.95 147.29-14.55 148.29-16.15 148.29-18.15L148.29-18.15Q148.29-20.5 146.64-20.5L146.64-20.5Q145.29-20.5 144.06-19.05 142.84-17.6 142.01-15.45 141.19-13.3 140.89-11.3L140.89-11.3Q141.19-11.1 142.04-11.1L142.04-11.1ZM156.74 0.5Q154.19 0.5 154.19-4.4L154.19-4.4Q154.19-8.95 156.19-13.48 158.19-18 161.59-20.9 164.99-23.8 168.89-23.8L168.89-23.8 169.39-23.8Q171.04-30.7 172.49-34.2 173.94-37.7 176.34-40L176.34-40Q177.94-41.5 179.24-42.05 180.54-42.6 182.79-43.05L182.79-43.05Q183.79-43.25 184.21-43.43 184.64-43.6 184.79-43.6L184.79-43.6Q185.14-43.6 185.14-43.2L185.14-43.2Q185.14-42.55 184.19-41.75L184.19-41.75Q183.69-41.3 183.26-41.15 182.84-41 182.44-40.95 182.04-40.9 181.84-40.85L181.84-40.85Q179.24-40.5 177.44-38.25L177.44-38.25Q176.09-36.5 175.06-33.25 174.04-30 172.29-21.9L172.29-21.9Q169.39-7.9 169.04-5.15L169.04-5.15Q168.99-4.8 168.99-4.3L168.99-4.3Q168.99-3.2 169.64-3.2L169.64-3.2Q170.44-3.2 171.16-4.28 171.89-5.35 172.69-7.15L172.69-7.15Q172.99-7.7 173.24-7.7L173.24-7.7Q173.54-7.7 173.54-7.15L173.54-7.15 173.44-6.3Q173.04-4.55 171.96-2.98 170.89-1.4 169.56-0.45 168.24 0.5 167.14 0.5L167.14 0.5Q165.54 0.5 165.54-2.15L165.54-2.15Q165.54-3.15 165.74-4.55L165.74-4.55 166.59-8.95 166.54-8.95Q164.69-5.75 161.84-2.63 158.99 0.5 156.74 0.5L156.74 0.5ZM159.09-3.6Q160.49-3.6 162.31-5.78 164.14-7.95 165.71-11.1 167.29-14.25 167.89-16.75L167.89-16.75 168.69-19.95Q167.19-20.95 165.54-20.95L165.54-20.95Q163.39-20.95 161.61-18.48 159.84-16 158.84-12.48 157.84-8.95 157.84-6.1L157.84-6.1Q157.84-4.85 158.11-4.23 158.39-3.6 159.09-3.6L159.09-3.6Z" opacity="1" transform="matrix(1,0,0,1,0,0)" fill="#ffffff" class="wordmark-text-0" data-fill-palette-color="quaternary" id="text-0"></path></svg></g></svg></g></svg></g></svg></g><g></g></svg></g></svg></g></svg></g><defs></defs></svg><rect width="342.85155851775386" height="342.85155851775386" fill="none" stroke="none" visibility="hidden"></rect></g></svg></g></svg>